<svg version="1.1" id="Layer_1" xmlns="http://www.w3.org/2000/svg" xmlns:xlink="http://www.w3.org/1999/xlink" x="0px" y="0px"
	 width="100%" viewBox="0 0 512 512" enable-background="new 0 0 512 512" xml:space="preserve">
<path fill="#000000" opacity="1.000000" stroke="none" 
	d="
M513.000000,70.000000 
	C513.000000,200.687561 513.000000,331.375122 512.718628,462.734436 
	C509.341888,466.178894 510.088806,470.900604 506.884338,473.777618 
	C499.144501,480.726471 492.553558,489.466278 483.821075,494.664948 
	C473.586975,500.757629 460.700623,503.506073 449.299469,499.599091 
	C431.247742,493.412964 413.579102,493.080658 395.331879,496.741516 
	C390.001221,497.811005 385.918701,500.869781 382.256287,504.506744 
	C380.011414,506.735992 378.341461,509.534668 380.000000,513.000000 
	C253.740372,513.000000 127.480743,513.000000 1.000000,513.000000 
	C1.000000,389.645874 1.000000,266.291595 1.236820,142.626236 
	C6.756424,143.318558 12.264182,143.370834 17.032520,146.473511 
	C18.291842,147.292938 19.990023,146.804535 21.365208,146.085464 
	C27.848562,142.695328 34.658371,139.883331 40.334198,135.077576 
	C46.364086,129.972046 52.982365,125.953476 60.634037,123.595062 
	C66.514839,121.782471 71.282913,118.091713 74.883553,113.078415 
	C83.967049,100.431137 91.876953,87.101707 96.298363,72.075539 
	C98.256317,65.421471 102.032532,60.600185 107.513100,56.715889 
	C111.838326,53.650425 116.494614,50.902451 118.815948,45.710461 
	C119.611809,43.930397 121.385544,43.169914 123.190674,42.643009 
	C141.346680,37.343361 159.931366,33.316040 178.769516,34.970387 
	C197.583633,36.622627 213.960358,31.677628 229.573105,22.170486 
	C231.336884,21.096457 232.984787,19.778214 233.343231,17.717659 
	C234.071518,13.531042 235.788834,9.810546 238.016556,6.270630 
	C239.693298,3.606255 238.817749,1.935922 236.000000,1.000000 
	C253.354233,1.000000 270.708466,1.000000 288.502991,1.286424 
	C290.460419,4.991312 292.296539,8.309090 293.415161,11.853333 
	C294.863373,16.441877 297.893890,19.086544 302.219086,20.537245 
	C308.240204,22.556763 314.498199,23.558279 320.792267,23.766493 
	C329.520569,24.055233 338.376007,25.193764 346.744995,21.176531 
	C349.862274,19.680178 351.838348,17.507080 349.091431,14.796395 
	C344.933746,10.693585 346.305328,6.887333 348.406067,2.833636 
	C348.269989,2.597412 348.222656,2.401979 348.099884,2.320890 
	C347.409973,1.865365 346.701904,1.437372 346.000000,0.999994 
	C363.020905,1.000000 380.041779,1.000000 397.300537,1.131316 
	C396.864868,1.692491 396.191406,2.122349 395.064453,2.841631 
	C400.741364,6.265579 402.840942,11.291870 403.089600,17.229540 
	C403.220520,20.356184 405.254181,21.922413 407.686035,23.226803 
	C415.760468,27.557762 423.897705,31.595490 433.003052,33.555523 
	C442.938477,35.694225 451.889862,39.849091 458.497711,48.102501 
	C462.876099,53.571251 468.756104,56.956936 475.281860,59.382809 
	C479.016479,60.771126 482.944244,62.048309 486.194000,64.248535 
	C493.255981,69.029778 500.452576,71.958054 509.104126,69.398048 
	C510.243591,69.060883 511.693756,69.773560 513.000000,70.000000 
M70.983566,323.659882 
	C82.601601,358.599915 104.871384,382.218994 141.589264,390.999786 
	C158.518021,395.048187 175.654068,397.014160 192.953171,397.531036 
	C209.113678,398.013885 225.177780,396.413086 241.140747,393.756256 
	C279.954651,387.296173 314.231049,371.657104 342.570892,343.920074 
	C362.929688,323.994293 377.240326,300.027893 387.771362,273.875214 
	C391.095123,265.621063 395.406952,262.808319 404.075745,262.506042 
	C421.114044,261.911987 435.538269,254.478790 445.312103,240.434082 
	C455.462097,225.848877 455.699524,223.902069 437.516754,217.516388 
	C427.465790,213.986557 416.864014,214.007797 406.392853,215.472778 
	C401.985016,216.089478 400.437805,214.843292 399.377930,210.458267 
	C395.601135,194.832657 386.268951,183.018784 372.911407,174.263290 
	C369.940277,172.315781 367.092285,171.451920 364.812317,175.149323 
	C352.510712,195.098709 347.524567,215.877945 358.510071,238.066620 
	C360.612762,242.313721 359.544678,243.997452 355.606415,245.381973 
	C346.245270,248.673035 336.602631,250.270889 326.714417,250.273209 
	C242.898148,250.292847 159.081879,250.265930 75.265602,250.274139 
	C65.269089,250.275116 61.420612,254.241898 61.252338,264.130096 
	C60.909115,284.299622 64.264267,303.857574 70.983566,323.659882 
M209.502945,205.406616 
	C205.340378,205.411346 201.175674,205.501236 197.015808,205.397461 
	C192.634628,205.288177 190.481110,207.387268 190.458694,211.676331 
	C190.416046,219.834610 190.431931,227.993301 190.449936,236.151749 
	C190.458206,239.897552 192.529694,241.576157 196.123672,241.581757 
	C205.780701,241.596802 215.437805,241.608566 225.094757,241.580582 
	C228.459274,241.570831 230.515244,239.907822 230.547272,236.448975 
	C230.622787,228.291336 230.695145,220.129150 230.498459,211.975327 
	C230.395126,207.691391 228.125168,205.249329 223.486572,205.391861 
	C219.161758,205.524765 214.829361,205.410263 209.502945,205.406616 
M244.120941,205.429001 
	C240.442429,205.481644 238.524933,207.486755 238.480453,211.024490 
	C238.373672,219.514526 238.414261,228.006790 238.447067,236.497971 
	C238.459549,239.728592 240.249847,241.503113 243.411636,241.529831 
	C253.234177,241.612885 263.058380,241.627365 272.880768,241.539871 
	C276.402771,241.508499 278.522247,239.613953 278.544037,235.949402 
	C278.591553,227.957886 278.692047,219.961914 278.479370,211.975525 
	C278.366302,207.729340 276.149017,205.297363 271.479797,205.370590 
	C262.657379,205.508942 253.831223,205.410095 244.120941,205.429001 
M253.538208,152.622986 
	C259.698456,152.615189 265.859039,152.641235 272.018890,152.587860 
	C276.233429,152.551331 278.543243,150.458267 278.552856,146.134018 
	C278.570251,138.309067 278.641357,130.482895 278.529541,122.659523 
	C278.469604,118.466331 276.290863,116.314705 271.900391,116.365509 
	C262.910797,116.469536 253.918869,116.469627 244.928909,116.393372 
	C240.505203,116.355858 238.494293,118.555611 238.447357,122.782211 
	C238.390045,127.942963 238.407379,133.104614 238.404663,138.265884 
	C238.397125,152.627365 238.399643,152.627365 253.538208,152.622986 
M128.865036,205.427444 
	C119.380676,205.417328 109.896263,205.422287 100.411980,205.389526 
	C96.730812,205.376816 94.297928,206.556625 94.337166,210.805298 
	C94.415527,219.290710 94.402130,227.777527 94.352127,236.263306 
	C94.331154,239.821579 96.136093,241.527802 99.522720,241.549622 
	C109.173042,241.611801 118.824043,241.601486 128.474625,241.570816 
	C131.862366,241.560059 133.725967,239.949524 133.706848,236.370132 
	C133.661514,227.884476 133.689590,219.398422 133.680710,210.912537 
	C133.677811,208.149002 132.835251,205.982544 128.865036,205.427444 
M319.135254,205.378906 
	C310.635773,205.384079 302.135040,205.476822 293.637299,205.357925 
	C289.313721,205.297440 287.129425,206.869736 287.225372,211.484222 
	C287.391602,219.480331 287.387207,227.484344 287.235931,235.480911 
	C287.154877,239.764664 289.099640,241.590240 293.213348,241.582626 
	C302.379272,241.565689 311.545227,241.594131 320.711182,241.587296 
	C324.808319,241.584229 326.745514,239.672760 326.663879,235.411240 
	C326.513947,227.581314 326.522003,219.744278 326.672272,211.914215 
	C326.762665,207.202957 324.649994,205.121429 319.135254,205.378906 
M181.576126,210.212646 
	C181.269348,206.666931 179.071381,205.419312 175.804077,205.422714 
	C166.494812,205.432419 157.185547,205.426407 147.876282,205.426682 
	C143.931198,205.426788 142.216263,207.378693 142.270752,211.335037 
	C142.382889,219.479218 142.392105,227.627213 142.273041,235.771149 
	C142.215195,239.728073 143.822296,241.637146 147.850632,241.612823 
	C157.159637,241.556610 166.469452,241.559921 175.778473,241.617157 
	C179.963974,241.642883 181.765381,239.764984 181.680817,235.524551 
	C181.518417,227.381958 181.620270,219.234100 181.576126,210.212646 
M208.505295,161.329788 
	C204.680344,161.332489 200.850433,161.458221 197.031769,161.304611 
	C192.889175,161.137955 190.625031,163.065338 190.556137,167.083496 
	C190.416473,175.228302 190.458954,183.378357 190.569717,191.524292 
	C190.615082,194.861008 192.377396,196.700790 195.920715,196.684067 
	C205.565933,196.638550 215.211792,196.627350 224.856796,196.692093 
	C228.586380,196.717148 230.488373,194.941071 230.520859,191.307755 
	C230.590729,183.492493 230.637985,175.674713 230.511368,167.860916 
	C230.439377,163.418121 227.960785,161.262436 223.470825,161.328278 
	C218.815536,161.396545 214.158325,161.334152 208.505295,161.329788 
M244.192200,161.389465 
	C239.659683,161.690628 238.419556,164.635406 238.420410,168.577133 
	C238.421967,175.724030 238.360519,182.871658 238.444931,190.017563 
	C238.509354,195.471085 239.723114,196.640350 245.328812,196.680176 
	C254.137299,196.742767 262.947083,196.749146 271.755341,196.669540 
	C277.127686,196.620987 278.438873,195.311752 278.533417,189.785507 
	C278.652802,182.806824 278.666107,175.822937 278.542206,168.844543 
	C278.440918,163.138412 276.677094,161.404861 270.999451,161.351486 
	C262.357635,161.270248 253.714310,161.346970 244.192200,161.389465 
M170.391479,196.690353 
	C171.554367,196.688965 172.717392,196.699326 173.880096,196.684250 
	C180.849655,196.593887 181.618973,195.840332 181.635803,188.948135 
	C181.652847,181.971024 181.543259,174.992233 181.664551,168.017227 
	C181.743515,163.476837 179.919037,161.239838 175.194061,161.297852 
	C166.058823,161.410004 156.919846,161.408661 147.785004,161.276230 
	C143.660385,161.216446 142.187347,163.087280 142.257294,167.035492 
	C142.395554,174.840866 142.443314,182.653473 142.260284,190.456802 
	C142.154404,194.971695 144.096375,196.789246 148.489883,196.717377 
	C155.465134,196.603241 162.443649,196.688171 170.391479,196.690353 
z"/>
</svg>