<svg version="1.1" id="Layer_1" xmlns="http://www.w3.org/2000/svg" xmlns:xlink="http://www.w3.org/1999/xlink" x="0px" y="0px"
	 width="100%" viewBox="0 0 512 512" enable-background="new 0 0 512 512" xml:space="preserve">
<path fill="#000000" opacity="1.000000" stroke="none" 
	d="
M262.000000,513.000000 
	C258.969421,513.000000 255.938812,513.000000 252.315430,512.612610 
	C250.258728,512.063843 248.772629,512.013062 247.334320,511.724274 
	C229.628632,508.169434 211.936462,504.547150 194.227600,501.008453 
	C176.981628,497.562286 159.710022,494.244232 142.468796,490.774750 
	C124.923004,487.243958 107.408638,483.557037 89.865440,480.013092 
	C74.266708,476.861969 58.647381,473.812805 43.397541,470.790100 
	C42.560131,463.466949 41.676704,456.662048 41.023018,449.835144 
	C39.619717,435.179443 38.334904,420.512451 37.001583,405.850067 
	C35.668262,391.187683 34.334946,376.525330 33.001621,361.862946 
	C31.668304,347.200592 30.334976,332.538208 29.001656,317.875854 
	C27.668333,303.213470 26.335011,288.551117 25.001688,273.888733 
	C23.668367,259.226379 22.329351,244.564529 21.003315,229.901505 
	C19.662334,215.073227 18.346315,200.242706 16.996401,185.415253 
	C16.017811,174.666428 14.925110,163.927475 14.020174,153.172592 
	C12.618753,136.517151 11.332148,119.852028 10.001206,103.190666 
	C9.648586,98.776413 9.388114,94.353378 8.953500,89.947380 
	C7.671075,76.946495 6.239245,63.959877 5.029024,50.952499 
	C4.208815,42.136959 3.714035,33.291283 2.917031,24.473240 
	C2.837943,23.598219 1.665166,22.822050 1.000000,22.000000 
	C1.000000,21.250000 1.000000,20.500000 1.367052,19.261696 
	C1.489402,17.182261 1.244701,15.591130 1.000000,14.000000 
	C1.000000,9.670435 1.000000,5.340870 1.000000,1.016405 
	C171.666672,1.021504 342.333344,1.021504 513.000000,1.021504 
	C513.000000,4.373368 513.000000,7.703728 512.595093,11.678850 
	C511.127411,23.900698 510.054047,35.476826 509.004456,47.055111 
	C507.659790,61.888248 506.345551,76.724144 504.997284,91.556953 
	C503.679138,106.059174 502.323212,120.557961 501.005005,135.060181 
	C499.656769,149.892990 498.345520,164.729172 496.997284,179.561981 
	C495.679108,194.064209 494.323151,208.562988 493.004974,223.065216 
	C491.656769,237.898026 490.345490,252.734192 488.997284,267.567017 
	C487.679108,282.069214 486.323181,296.568054 485.004974,311.070282 
	C483.656708,325.903076 482.346344,340.739349 480.996399,355.572021 
	C480.017822,366.324615 478.985046,377.072296 478.006470,387.824890 
	C476.656525,402.657562 475.288849,417.488831 474.015076,432.328094 
	C472.922638,445.055145 471.951508,457.792572 470.906525,470.776215 
	C461.324493,472.621033 451.836731,474.392517 442.372437,476.281738 
	C424.653168,479.818756 406.953552,483.454102 389.234497,486.992249 
	C371.982208,490.437164 354.708313,493.773895 337.457825,497.227722 
	C319.742065,500.774750 302.034271,504.363068 284.341064,508.020813 
	C276.870239,509.565277 269.445648,511.333527 262.000000,513.000000 
M244.995605,466.493164 
	C249.269379,467.322174 253.597961,469.026947 257.803406,468.763794 
	C263.360352,468.416107 268.800415,466.424591 274.326508,465.318542 
	C291.735901,461.833984 309.161835,458.432098 326.581726,455.000092 
	C342.260132,451.911194 357.948334,448.871155 373.615204,445.724854 
	C391.168396,442.199799 408.669952,438.403564 426.272369,435.149414 
	C429.785980,434.499878 430.677490,432.630737 430.942535,430.038666 
	C432.074524,418.967987 432.994904,407.875732 433.999573,396.791992 
	C435.329163,382.123566 436.665314,367.455719 437.998627,352.787628 
	C439.331970,338.119537 440.665283,323.451477 441.998627,308.783386 
	C443.331940,294.115295 444.676971,279.448242 445.995361,264.778809 
	C447.343414,249.778412 448.653839,234.774612 450.001923,219.774216 
	C451.320251,205.104797 452.662537,190.437500 453.999542,175.769760 
	C454.994720,164.851608 456.007416,153.935013 456.995758,143.016251 
	C458.338531,128.182358 459.733124,113.352715 460.979034,98.510635 
	C462.076691,85.434891 462.946564,72.340088 464.028870,59.262966 
	C464.441132,54.281654 465.164856,49.326122 465.757294,44.267715 
	C326.524017,44.267715 187.306564,44.267715 47.782291,44.267715 
	C48.246105,45.987999 48.829830,47.359325 48.963139,48.773121 
	C50.023483,60.018448 50.982281,71.273300 52.003384,82.522400 
	C53.319851,97.025383 54.676704,111.524704 55.994888,126.027527 
	C57.343124,140.860962 58.654377,155.697739 60.002609,170.531174 
	C61.320793,185.034012 62.676731,199.533401 63.994911,214.036240 
	C65.343147,228.869659 66.654404,243.706451 68.002640,258.539856 
	C69.320831,273.042694 70.676765,287.542114 71.994949,302.044952 
	C73.343178,316.878357 74.653587,331.715240 76.003517,346.548523 
	C76.982117,357.301575 78.080025,368.044342 78.978653,378.803925 
	C80.384102,395.631989 81.649696,412.471710 83.015175,429.303192 
	C83.264053,432.371002 83.880409,434.591095 87.992889,435.160522 
	C96.929634,436.398041 105.750732,438.481873 114.610222,440.263947 
	C132.324692,443.827118 150.033707,447.417480 167.743988,451.001526 
	C183.556839,454.201660 199.358032,457.460602 215.184341,460.592682 
	C224.851837,462.505920 234.557037,464.228516 244.995605,466.493164 
z"/>
<path fill="#FFFFFF" opacity="1.000000" stroke="none" 
	d="
M262.468658,513.000000 
	C269.445648,511.333527 276.870239,509.565277 284.341064,508.020813 
	C302.034271,504.363068 319.742065,500.774750 337.457825,497.227722 
	C354.708313,493.773895 371.982208,490.437164 389.234497,486.992249 
	C406.953552,483.454102 424.653168,479.818756 442.372437,476.281738 
	C451.836731,474.392517 461.324493,472.621033 470.906525,470.776215 
	C471.951508,457.792572 472.922638,445.055145 474.015076,432.328094 
	C475.288849,417.488831 476.656525,402.657562 478.006470,387.824890 
	C478.985046,377.072296 480.017822,366.324615 480.996399,355.572021 
	C482.346344,340.739349 483.656708,325.903076 485.004974,311.070282 
	C486.323181,296.568054 487.679108,282.069214 488.997284,267.567017 
	C490.345490,252.734192 491.656769,237.898026 493.004974,223.065216 
	C494.323151,208.562988 495.679108,194.064209 496.997284,179.561981 
	C498.345520,164.729172 499.656769,149.892990 501.005005,135.060181 
	C502.323212,120.557961 503.679138,106.059174 504.997284,91.556953 
	C506.345551,76.724144 507.659790,61.888248 509.004456,47.055111 
	C510.054047,35.476826 511.127411,23.900698 512.595093,12.161806 
	C513.000000,178.902817 513.000000,345.805634 513.000000,513.000000 
	C429.645996,513.000000 346.291656,513.000000 262.468658,513.000000 
z"/>
<path fill="#FFFFFF" opacity="1.000000" stroke="none" 
	d="
M1.000000,22.468658 
	C1.665166,22.822050 2.837943,23.598219 2.917031,24.473240 
	C3.714035,33.291283 4.208815,42.136959 5.029024,50.952499 
	C6.239245,63.959877 7.671075,76.946495 8.953500,89.947380 
	C9.388114,94.353378 9.648586,98.776413 10.001206,103.190666 
	C11.332148,119.852028 12.618753,136.517151 14.020174,153.172592 
	C14.925110,163.927475 16.017811,174.666428 16.996401,185.415253 
	C18.346315,200.242706 19.662334,215.073227 21.003315,229.901505 
	C22.329351,244.564529 23.668367,259.226379 25.001688,273.888733 
	C26.335011,288.551117 27.668333,303.213470 29.001656,317.875854 
	C30.334976,332.538208 31.668304,347.200592 33.001621,361.862946 
	C34.334946,376.525330 35.668262,391.187683 37.001583,405.850067 
	C38.334904,420.512451 39.619717,435.179443 41.023018,449.835144 
	C41.676704,456.662048 42.560131,463.466949 43.397541,470.790100 
	C58.647381,473.812805 74.266708,476.861969 89.865440,480.013092 
	C107.408638,483.557037 124.923004,487.243958 142.468796,490.774750 
	C159.710022,494.244232 176.981628,497.562286 194.227600,501.008453 
	C211.936462,504.547150 229.628632,508.169434 247.334320,511.724274 
	C248.772629,512.013062 250.258728,512.063843 251.861313,512.612610 
	C168.382690,513.000000 84.765366,513.000000 1.000000,513.000000 
	C1.000000,349.645813 1.000000,186.291565 1.000000,22.468658 
z"/>
<path fill="#FFFFFF" opacity="1.000000" stroke="none" 
	d="
M1.000000,14.416664 
	C1.244701,15.591130 1.489402,17.182261 1.367052,18.886696 
	C1.000000,17.611109 1.000000,16.222219 1.000000,14.416664 
z"/>
<path fill="#FFFFFF" opacity="1.000000" stroke="none" 
	d="
M244.620453,466.264954 
	C234.557037,464.228516 224.851837,462.505920 215.184341,460.592682 
	C199.358032,457.460602 183.556839,454.201660 167.743988,451.001526 
	C150.033707,447.417480 132.324692,443.827118 114.610222,440.263947 
	C105.750732,438.481873 96.929634,436.398041 87.992889,435.160522 
	C83.880409,434.591095 83.264053,432.371002 83.015175,429.303192 
	C81.649696,412.471710 80.384102,395.631989 78.978653,378.803925 
	C78.080025,368.044342 76.982117,357.301575 76.003517,346.548523 
	C74.653587,331.715240 73.343178,316.878357 71.994949,302.044952 
	C70.676765,287.542114 69.320831,273.042694 68.002640,258.539856 
	C66.654404,243.706451 65.343147,228.869659 63.994911,214.036240 
	C62.676731,199.533401 61.320793,185.034012 60.002609,170.531174 
	C58.654377,155.697739 57.343124,140.860962 55.994888,126.027527 
	C54.676704,111.524704 53.319851,97.025383 52.003384,82.522400 
	C50.982281,71.273300 50.023483,60.018448 48.963139,48.773121 
	C48.829830,47.359325 48.246105,45.987999 47.782291,44.267715 
	C187.306564,44.267715 326.524017,44.267715 465.757294,44.267715 
	C465.164856,49.326122 464.441132,54.281654 464.028870,59.262966 
	C462.946564,72.340088 462.076691,85.434891 460.979034,98.510635 
	C459.733124,113.352715 458.338531,128.182358 456.995758,143.016251 
	C456.007416,153.935013 454.994720,164.851608 453.999542,175.769760 
	C452.662537,190.437500 451.320251,205.104797 450.001923,219.774216 
	C448.653839,234.774612 447.343414,249.778412 445.995361,264.778809 
	C444.676971,279.448242 443.331940,294.115295 441.998627,308.783386 
	C440.665283,323.451477 439.331970,338.119537 437.998627,352.787628 
	C436.665314,367.455719 435.329163,382.123566 433.999573,396.791992 
	C432.994904,407.875732 432.074524,418.967987 430.942535,430.038666 
	C430.677490,432.630737 429.785980,434.499878 426.272369,435.149414 
	C408.669952,438.403564 391.168396,442.199799 373.615204,445.724854 
	C357.948334,448.871155 342.260132,451.911194 326.581726,455.000092 
	C309.161835,458.432098 291.735901,461.833984 274.326508,465.318542 
	C268.800415,466.424591 263.360352,468.416107 257.803406,468.763794 
	C253.597961,469.026947 249.269379,467.322174 244.620453,466.264954 
M401.000031,297.432861 
	C401.671448,288.432892 402.322113,279.431274 403.023895,270.433685 
	C403.329315,266.518005 403.715393,262.608093 404.107391,258.699860 
	C404.885773,250.940002 405.693665,243.183105 406.538239,234.948532 
	C377.484894,234.948532 349.413940,234.948532 321.219727,234.948532 
	C321.219727,199.486771 321.219727,164.420212 321.219727,128.987045 
	C352.859772,128.987045 384.282837,128.987045 416.065857,128.987045 
	C417.414978,114.581856 418.733185,100.506783 420.058136,86.359619 
	C372.461121,86.359619 325.266907,86.359619 278.349701,86.359619 
	C278.349701,150.782364 278.349701,214.845261 278.349701,279.266388 
	C305.430328,279.266388 332.162079,279.266388 357.974670,279.266388 
	C357.974670,283.377808 358.268066,287.146454 357.921295,290.855255 
	C356.735565,303.537262 355.218109,316.188293 354.035828,328.870575 
	C353.182800,338.020630 352.960449,347.239532 351.803650,356.344788 
	C351.471893,358.955811 352.426392,363.112213 347.760315,364.011536 
	C325.570312,368.288177 303.390594,372.620178 281.243469,377.111145 
	C279.997406,377.363770 278.157593,379.194672 278.140228,380.314911 
	C277.926453,394.115540 278.000854,407.920654 278.000854,422.288452 
	C316.206360,414.654327 353.955170,407.111481 391.547607,399.599854 
	C392.036713,395.649078 392.615295,391.774689 392.980896,387.880310 
	C394.357605,373.215790 395.682343,358.546326 396.993561,343.875763 
	C398.349060,328.709137 399.666138,313.539124 401.000031,297.432861 
M231.377304,86.000000 
	C218.623932,86.000000 205.870575,86.000000 192.770050,86.000000 
	C192.770050,180.741058 192.770050,274.817657 192.770050,368.953094 
	C183.689240,367.251923 174.942734,365.725647 166.268127,363.864288 
	C165.003052,363.592804 163.299088,361.827515 163.130157,360.573975 
	C162.192673,353.616821 161.711929,346.599548 160.986526,339.612030 
	C160.340454,333.388672 159.579544,327.177246 158.919220,321.397278 
	C143.784760,321.397278 129.418259,321.397278 115.261978,321.397278 
	C117.662621,347.819916 120.029182,373.867371 122.365700,399.584167 
	C160.234482,407.151245 197.880859,414.673920 236.000000,422.291046 
	C236.000000,419.968323 236.000000,418.163544 236.000000,416.358765 
	C236.000000,331.525757 236.000000,246.692734 236.000000,161.859726 
	C236.000000,137.859818 235.951508,113.859673 236.063400,89.860291 
	C236.076889,86.966461 235.622940,85.340202 231.377304,86.000000 
z"/>
<path fill="#000000" opacity="1.000000" stroke="none" 
	d="
M401.000000,297.901733 
	C399.666138,313.539124 398.349060,328.709137 396.993561,343.875763 
	C395.682343,358.546326 394.357605,373.215790 392.980896,387.880310 
	C392.615295,391.774689 392.036713,395.649078 391.547607,399.599854 
	C353.955170,407.111481 316.206360,414.654327 278.000854,422.288452 
	C278.000854,407.920654 277.926453,394.115540 278.140228,380.314911 
	C278.157593,379.194672 279.997406,377.363770 281.243469,377.111145 
	C303.390594,372.620178 325.570312,368.288177 347.760315,364.011536 
	C352.426392,363.112213 351.471893,358.955811 351.803650,356.344788 
	C352.960449,347.239532 353.182800,338.020630 354.035828,328.870575 
	C355.218109,316.188293 356.735565,303.537262 357.921295,290.855255 
	C358.268066,287.146454 357.974670,283.377808 357.974670,279.266388 
	C332.162079,279.266388 305.430328,279.266388 278.349701,279.266388 
	C278.349701,214.845261 278.349701,150.782364 278.349701,86.359619 
	C325.266907,86.359619 372.461121,86.359619 420.058136,86.359619 
	C418.733185,100.506783 417.414978,114.581856 416.065857,128.987045 
	C384.282837,128.987045 352.859772,128.987045 321.219727,128.987045 
	C321.219727,164.420212 321.219727,199.486771 321.219727,234.948532 
	C349.413940,234.948532 377.484894,234.948532 406.538239,234.948532 
	C405.693665,243.183105 404.885773,250.940002 404.107391,258.699860 
	C403.715393,262.608093 403.329315,266.518005 403.023895,270.433685 
	C402.322113,279.431274 401.671448,288.432892 401.000000,297.901733 
z"/>
<path fill="#000000" opacity="1.000000" stroke="none" 
	d="
M231.862762,86.000000 
	C235.622940,85.340202 236.076889,86.966461 236.063400,89.860291 
	C235.951508,113.859673 236.000000,137.859818 236.000000,161.859726 
	C236.000000,246.692734 236.000000,331.525757 236.000000,416.358765 
	C236.000000,418.163544 236.000000,419.968323 236.000000,422.291046 
	C197.880859,414.673920 160.234482,407.151245 122.365700,399.584167 
	C120.029182,373.867371 117.662621,347.819916 115.261978,321.397278 
	C129.418259,321.397278 143.784760,321.397278 158.919220,321.397278 
	C159.579544,327.177246 160.340454,333.388672 160.986526,339.612030 
	C161.711929,346.599548 162.192673,353.616821 163.130157,360.573975 
	C163.299088,361.827515 165.003052,363.592804 166.268127,363.864288 
	C174.942734,365.725647 183.689240,367.251923 192.770050,368.953094 
	C192.770050,274.817657 192.770050,180.741058 192.770050,86.000000 
	C205.870575,86.000000 218.623932,86.000000 231.862762,86.000000 
z"/>
</svg>