<svg xmlns="http://www.w3.org/2000/svg"  viewBox="0 0 64 64" width="64px" height="64px"><g data-name="Fill Outlines"><rect width="42" height="4" x="3" y="3" fill="#d0d8da"/><rect width="42" height="4" x="3" y="55" fill="#d0d8da"/><rect width="34" height="8" x="7" y="47" fill="#d0d8da"/><rect width="34" height="8" x="7" y="39" fill="#d0d8da"/><path fill="#93999a" d="M11,39H7v8H41V43H15A4,4,0,0,1,11,39Z"/><path fill="#93999a" d="M11,47H7v8H41V51H15A4,4,0,0,1,11,47Z"/><rect width="34" height="8" x="7" y="31" fill="#d0d8da"/><path fill="#93999a" d="M11,31H7v8H41V35H15A4,4,0,0,1,11,31Z"/><g><rect width="34" height="8" x="7" y="23" fill="#d0d8da"/><rect width="34" height="8" x="7" y="15" fill="#d0d8da"/><path fill="#93999a" d="M11,15H7v8H41V19H15A4,4,0,0,1,11,15Z"/><path fill="#93999a" d="M11,23H7v8H41V27H15A4,4,0,0,1,11,23Z"/><rect width="34" height="8" x="7" y="7" fill="#d0d8da"/><path fill="#93999a" d="M11,7H7v8H41V11H15A4,4,0,0,1,11,7Z"/></g><path fill="#93999a" d="M7,3H3V7H45V5H9A2,2,0,0,1,7,3Z"/><path fill="#93999a" d="M7,55H3v4H45V57H9A2,2,0,0,1,7,55Z"/><g><circle cx="41" cy="41" r="20" fill="#f9e109"/><path fill="#fcbc04" d="M48,55A19.974,19.974,0,0,1,31.859,23.225a19.989,19.989,0,1,0,25.282,29.55A19.891,19.891,0,0,1,48,55Z"/><circle cx="41" cy="41" r="16" fill="#fcbc04"/><path fill="#e59730" d="M41,25a15.957,15.957,0,0,0-12.7,6.3A15.98,15.98,0,0,1,50.7,53.7,15.986,15.986,0,0,0,41,25Z"/><path fill="#e59730" d="M48,55A19.969,19.969,0,0,1,28.371,31.2,15.986,15.986,0,0,0,48.807,54.959C48.537,54.97,48.272,55,48,55Z"/></g><g data-name="Outlines copy"><path fill="#1f2d51" d="M29,46a2,2,0,0,1-2-2,1,1,0,0,0-2,0,4,4,0,1,0,4-4,2,2,0,1,1,2-2,1,1,0,0,0,2,0,4,4,0,1,0-4,4,2,2,0,0,1,0,4Z"/><path fill="#1f2d51" d="M57,47a1,1,0,0,0-1-1H51V35a1,1,0,0,0-2,0V47a1,1,0,0,0,1,1h6A1,1,0,0,0,57,47Z"/><path fill="#1f2d51" d="M47,40a6,6,0,0,0-12,0v2a5.99,5.99,0,0,0,9.471,4.885l.822.822a1,1,0,0,0,1.414-1.414l-.822-.822A5.961,5.961,0,0,0,47,42Zm-4.293,2.293a1,1,0,0,0-1.414,1.414l1.726,1.726A3.947,3.947,0,0,1,41,46a4,4,0,0,1-4-4V40a4,4,0,0,1,8,0v2a3.947,3.947,0,0,1-.567,2.019Z"/><path fill="#1f2d51" d="M57.257,27.712a1,1,0,1,0-1.547,1.267,19.018,19.018,0,1,1-2.689-2.688,1,1,0,0,0,1.266-1.548,21,21,0,1,0,2.97,2.969Z"/><path fill="#1f2d51" d="M52.7,31.626a1,1,0,0,0,1.561-1.252,16.98,16.98,0,0,0-26.52,0A1,1,0,0,0,29.3,31.626a14.977,14.977,0,0,1,23.4,0Z"/><path fill="#1f2d51" d="M41,58a16.928,16.928,0,0,0,13.26-6.374A1,1,0,0,0,52.7,50.374a14.977,14.977,0,0,1-23.4,0,1,1,0,0,0-1.561,1.252A16.928,16.928,0,0,0,41,58Z"/><circle cx="28" cy="19" r="1" fill="#1f2d51"/><circle cx="32" cy="19" r="1" fill="#1f2d51"/><path fill="#1f2d51" d="M11,18a1,1,0,0,0,0,2H23a1,1,0,0,0,0-2Z"/><circle cx="28" cy="11" r="1" fill="#1f2d51"/><circle cx="32" cy="11" r="1" fill="#1f2d51"/><circle cx="36" cy="11" r="1" fill="#1f2d51"/><path fill="#1f2d51" d="M11,12H23a1,1,0,0,0,0-2H11a1,1,0,0,0,0,2Z"/><path fill="#1f2d51" d="M25.326,58H4V56H21.729a1,1,0,0,0,0-2H8V48h9.918a1,1,0,1,0,0-2H8V40h9.1a1,1,0,0,0,0-2H8V32H19.7a1,1,0,1,0,0-2H8V24H25.326a1,1,0,0,0,0-2H8V16H40v1a1,1,0,0,0,2,0V8h3a1,1,0,0,0,1-1V3a1,1,0,0,0-1-1H3A1,1,0,0,0,2,3V7A1,1,0,0,0,3,8H6V54H3a1,1,0,0,0-1,1v4a1,1,0,0,0,1,1H25.326a1,1,0,0,0,0-2ZM4,4H44V6H4ZM40,8v6H8V8Z"/><path fill="#1f2d51" d="M15,26a1,1,0,0,0,0,2h7a1,1,0,0,0,0-2Z"/><path fill="#1f2d51" d="M12,50a1,1,0,0,0,0,2h3a1,1,0,0,0,0-2Z"/><path fill="#1f2d51" d="M12,34a1,1,0,0,0,0,2h2a1,1,0,0,0,0-2Z"/><circle cx="18" cy="35" r="1" fill="#1f2d51"/><circle cx="12" cy="43" r="1" fill="#1f2d51"/><circle cx="16" cy="43" r="1" fill="#1f2d51"/><circle cx="19" cy="51" r="1" fill="#1f2d51"/><circle cx="12" cy="27" r="1" fill="#1f2d51"/></g></g></svg>